<svg xmlns="http://www.w3.org/2000/svg" width="154" height="64" viewBox="0 0 154 64">
  <g id="Group_6346" data-name="Group 6346" transform="translate(-86 -842)">
    <rect id="Rectangle_1524" data-name="Rectangle 1524" width="154" height="64" rx="6" transform="translate(86 842)" fill="#6bb130"/>
    <g id="Group_6342" data-name="Group 6342" transform="translate(91.3 847.302)">
      <path id="Path_22382" data-name="Path 22382" d="M-1488.781,6.358V50.183a2.13,2.13,0,0,0-.1.285,5.61,5.61,0,0,1-2.911,4.021,14.65,14.65,0,0,1-2.043.751h-43.816c-.043-.027-.084-.073-.13-.079a5.924,5.924,0,0,1-4.942-6.082c.039-13.869.015-27.738.023-41.607a7.356,7.356,0,0,1,.161-1.669,5.785,5.785,0,0,1,5.846-4.5q17.851-.006,35.7,0c2.159,0,4.319-.047,6.476.015a5.623,5.623,0,0,1,5.246,3.5A12.463,12.463,0,0,1-1488.781,6.358Zm-24.9,16.914c-.139-.194-.252-.344-.358-.5q-4.427-6.441-8.845-12.888a.859.859,0,0,0-.815-.422c-3.264.014-6.529.008-9.793.008h-.629l14.346,20.887-14.34,16.677c1.012,0,1.886-.015,2.76.007a.922.922,0,0,0,.8-.369q5.909-6.9,11.838-13.778c.119-.138.246-.269.388-.424l.394.568q4.665,6.788,9.324,13.58a.808.808,0,0,0,.754.424c3.317-.016,6.634-.009,9.951-.011.146,0,.291-.022.5-.039l-14.846-21.614,13.678-15.909c-1.038,0-1.915-.026-2.789.016a1.158,1.158,0,0,0-.743.349q-4.144,4.769-8.253,9.569Z" transform="translate(1542.724 -1.285)"/>
      <path id="Path_22383" data-name="Path 22383" d="M-1292.376,215.163c-1.637,0-3.164.014-4.689-.018a.874.874,0,0,1-.544-.388q-4.823-6.869-9.624-13.754l-12.632-18.072c-.107-.154-.206-.313-.344-.525.214-.012.364-.028.513-.029,1.316,0,2.632.008,3.948-.008a.772.772,0,0,1,.736.364q11.172,16.01,22.362,32.008C-1292.573,214.853-1292.5,214.968-1292.376,215.163Z" transform="translate(1333.274 -171.739)"/>
    </g>
    <g id="Group_6345" data-name="Group 6345" transform="translate(180.162 847.117)">
      <rect id="Rectangle_1525" data-name="Rectangle 1525" width="54" height="54" rx="4" transform="translate(-0.162 -0.117)"/>
      <g id="Group_6344" data-name="Group 6344" transform="translate(9.4 13.712)">
        <path id="Path_22386" data-name="Path 22386" d="M-2432.63,113.38a2.377,2.377,0,0,1,1.389-1.125q3.428-1.332,6.865-2.639,11.765-4.5,23.53-9.006a2.689,2.689,0,0,1,.575-.164,1.447,1.447,0,0,1,1.769,1.593,12.152,12.152,0,0,1-.334,2.165q-2.417,11.382-4.859,22.759a4.566,4.566,0,0,1-.393,1.125,1.323,1.323,0,0,1-1.68.713,3.432,3.432,0,0,1-1.012-.482c-2.448-1.772-4.881-3.563-7.32-5.348-.1-.072-.2-.141-.317-.227-.1.085-.188.161-.275.243q-1.87,1.784-3.736,3.57a1.828,1.828,0,0,1-1.36.553c.033-.481.063-.953.1-1.424.148-2.084.294-4.167.455-6.25a.731.731,0,0,1,.222-.443q7.085-6.382,14.184-12.749c.032-.03.078-.052.1-.089.089-.164.171-.333.256-.5a1.8,1.8,0,0,0-.607-.1,1.98,1.98,0,0,0-.659.3q-8.829,5.517-17.656,11.035a.659.659,0,0,1-.478.083c-2.5-.765-5-1.546-7.5-2.324a2.025,2.025,0,0,1-1.249-.867Z" transform="translate(2432.63 -100.426)" fill="#6bb130"/>
      </g>
    </g>
    <line id="Line_72" data-name="Line 72" x2="24.209" transform="translate(147.195 869.571)" fill="none" stroke="#000" stroke-width="1" stroke-dasharray="1"/>
    <path id="Path_22387" data-name="Path 22387" d="M3.325,0V3.325H0Z" transform="translate(168.381 869.571) rotate(-45)"/>
    <line id="Line_73" data-name="Line 73" x1="24.21" transform="translate(154.256 880.331)" fill="none" stroke="#000" stroke-width="1" stroke-dasharray="1"/>
    <path id="Path_22388" data-name="Path 22388" d="M3.325,3.325V0H0Z" transform="translate(154.927 882.682) rotate(-135)"/>
  </g>
</svg>
