<svg width="33" height="30" viewBox="0 0 33 30" fill="none" xmlns="http://www.w3.org/2000/svg">
<path d="M13.6045 22.0261C18.0532 16.823 22.4826 11.6381 26.9121 6.45318C26.9025 6.43498 26.8832 6.42589 26.8736 6.40769C26.7775 6.48046 26.6815 6.55324 26.595 6.6351C21.2912 11.3288 15.9778 16.0316 10.674 20.7344C10.453 20.9346 10.2704 20.971 9.9822 20.8709C7.15735 19.9431 4.32289 19.0243 1.49805 18.1147C0.00875636 17.6326 -0.481268 16.0771 0.537214 15.0583C0.719772 14.8764 0.95998 14.7218 1.20019 14.6035C9.4057 10.5283 17.6112 6.44408 25.8167 2.36891C27.2195 1.67759 28.6127 0.977171 30.0156 0.276752C30.7554 -0.0961985 31.4952 -0.114391 32.187 0.358619C32.8884 0.831629 33.0902 1.50476 32.9653 2.27795C32.0429 8.03594 31.1109 13.803 30.1885 19.561C29.9099 21.2802 29.6408 22.9903 29.3718 24.7096C29.1604 26.0194 28.0074 26.7108 26.6911 26.2923C22.3865 24.9006 18.082 23.5088 13.7871 22.108C13.7391 22.0898 13.7006 22.0716 13.6045 22.0261Z" fill="#6AB131"/>
<path d="M11.6541 22.9453C14.1906 23.7731 16.6888 24.5827 19.2158 25.4013C19.1774 25.4559 19.1582 25.4923 19.1293 25.5196C17.7265 26.7021 16.3237 27.8937 14.9017 29.0672C13.7967 29.9768 12.1633 29.5402 11.7309 28.2485C11.6829 28.112 11.6541 27.9574 11.6541 27.8119C11.6541 26.2109 11.6541 24.6099 11.6541 22.9453Z" fill="#6AB131"/>
</svg>
