<svg width="296" height="123" viewBox="0 0 296 123" fill="none" xmlns="http://www.w3.org/2000/svg">
<path d="M11.5325 0H284.468C290.81 0 296 5.18906 296 11.5312V111.469C296 117.811 290.81 123 284.468 123H11.5325C5.18961 123 0 117.811 0 111.469V11.5312C0 5.18906 5.18961 0 11.5325 0Z" fill="#69B144"/>
<path d="M113.787 19.9914V104.17C113.787 104.362 113.595 104.554 113.595 104.746C113.018 108.013 110.904 110.896 108.021 112.434C106.675 113.01 105.522 113.587 104.177 113.971H19.9896L19.7974 113.779C14.0312 112.818 9.99479 107.821 10.187 102.055C10.187 75.3414 10.187 48.8195 10.187 22.1055C10.187 20.9524 10.187 19.9914 10.5714 18.8383C11.7247 13.6492 16.5299 9.99767 21.7195 10.1899C44.5922 10.1899 67.4649 10.1899 90.3377 10.1899C94.5662 10.1899 98.6026 10.1899 102.831 10.1899C107.252 10.1899 111.288 12.8805 112.826 16.9164C113.21 17.8774 113.595 18.8383 113.787 19.9914ZM65.9273 52.4711C65.7351 52.0867 65.3506 51.8946 65.1584 51.5102C59.3922 43.2461 53.8182 34.982 48.2441 26.718C47.8597 26.1414 47.2831 25.757 46.7065 25.9492C40.3636 25.9492 34.213 25.9492 27.8701 25.9492H26.7169L54.2026 66.1164L26.7169 98.0196C28.639 98.0196 30.3688 98.0196 32.0987 98.0196C32.6753 98.0196 33.2519 97.8274 33.6364 97.2508C41.1325 88.4102 48.8208 79.5695 56.3169 70.7289C56.5091 70.5367 56.7013 70.1524 57.0857 69.9602L57.8545 71.1133C63.813 79.7617 69.7714 88.6024 75.7299 97.2508C75.9221 97.8274 76.4987 98.0196 77.2675 98.0196C83.6104 98.0196 89.9532 98.0196 96.4883 98.0196C96.6805 98.0196 97.0649 98.0196 97.4493 98.0196L68.8104 56.5071L95.1429 25.9492C93.2208 25.9492 91.4909 25.9492 89.761 25.9492C89.1844 25.9492 88.8 26.1414 88.4156 26.5258C83.0338 32.6758 77.8442 38.8258 72.4623 44.9758L65.9273 52.4711Z" fill="black"/>
<path d="M88.8 93.5992C85.7247 93.5992 82.6493 93.5992 79.7662 93.5992C79.3818 93.407 78.9974 93.2148 78.8052 92.8305C72.6545 83.9898 66.5039 75.1492 60.3532 66.3086L35.9428 31.7148C35.7506 31.3305 35.5584 31.1383 35.3662 30.7539C35.7506 30.7539 36.135 30.7539 36.3272 30.7539C38.826 30.7539 41.3247 30.7539 43.8234 30.7539C44.4 30.7539 44.9766 30.9461 45.1688 31.5227C59.3922 52.0867 73.8078 72.4586 88.2234 93.0227C88.4156 93.0227 88.6078 93.2148 88.8 93.5992Z" fill="black"/>
<path d="M188.291 9.64209H276.706C280.935 9.64209 284.395 13.1015 284.395 17.3296V105.736C284.395 109.964 280.935 113.423 276.706 113.423H188.291C184.062 113.423 180.602 109.964 180.602 105.736V17.3296C180.602 13.1015 184.062 9.64209 188.291 9.64209Z" fill="black"/>
<path d="M199.054 61.1714C199.631 60.2105 200.592 59.4417 201.745 59.0574C206.166 57.3277 210.587 55.598 215.007 54.0605C230 48.2949 245.184 42.5292 260.176 36.7636C260.561 36.3792 260.945 36.3792 261.33 36.1871C262.867 35.8027 264.405 36.7636 264.597 38.3011C264.597 38.6855 264.597 38.8777 264.597 39.2621C264.597 40.6074 264.213 42.1449 264.02 43.4902C260.945 58.0964 257.87 72.7027 254.602 87.3089C254.41 88.0777 254.218 88.8464 253.833 89.423C253.257 90.5761 251.911 91.3449 250.566 90.7683C249.797 90.5761 249.22 90.1917 248.644 89.8074C244.031 86.348 239.226 82.8886 234.613 79.6214C234.42 79.4292 234.228 79.4292 234.036 79.2371C233.844 79.4292 233.652 79.6214 233.459 79.6214C231.153 81.9277 228.654 84.2339 226.348 86.5402C225.579 87.3089 224.81 87.6933 223.657 87.6933C223.657 86.7324 223.849 85.7714 223.849 85.0027C224.041 80.9667 224.426 76.9308 224.81 73.0871C224.81 72.7027 225.002 72.5105 225.194 72.3183C234.228 64.0542 243.454 55.9824 252.488 47.9105L252.68 47.7183C252.872 47.3339 253.065 47.1417 253.257 46.7574C252.872 46.5652 252.488 46.5652 252.104 46.5652C251.719 46.7574 251.143 46.9496 250.758 47.1417C239.418 54.2527 228.078 61.3636 216.737 68.2824C216.545 68.4746 216.161 68.4746 215.776 68.4746C210.971 66.9371 206.166 65.5917 201.361 64.0542C200.4 63.8621 199.439 63.2855 199.054 62.3246V61.1714Z" fill="#69B144"/>
<path d="M117.631 53.0437H164.145" stroke="black" stroke-dasharray="1 1"/>
<path d="M162.8 48.4312L167.413 53.0436L162.8 57.6561V48.4312Z" fill="black"/>
<path d="M177.792 73.6079H131.278" stroke="black" stroke-dasharray="1 1"/>
<path d="M132.431 69.1875L127.818 73.8L132.431 78.4125V69.1875Z" fill="black"/>
</svg>
